<?xml version="1.0" encoding="UTF-8"?>
<svg version="1.1" xmlns="http://www.w3.org/2000/svg" width="200" height="200">
<path d="M0 0 C66 0 132 0 200 0 C200 66 200 132 200 200 C134 200 68 200 0 200 C0 134 0 68 0 0 Z " fill="#F74A53" transform="translate(0,0)"/>
<path d="M0 0 C9.9 0 19.8 0 30 0 C30 36.96 30 73.92 30 112 C20.1 112 10.2 112 0 112 C0 75.04 0 38.08 0 0 Z " fill="#FEFBFB" transform="translate(85,44)"/>
<path d="M0 0 C9.9 0 19.8 0 30 0 C30 36.96 30 73.92 30 112 C20.1 112 10.2 112 0 112 C0 75.04 0 38.08 0 0 Z " fill="#FEFBFB" transform="translate(51,44)"/>
<path d="M0 0 C9.9 0 19.8 0 30 0 C30 23.76 30 47.52 30 72 C20.1 72 10.2 72 0 72 C0 48.24 0 24.48 0 0 Z " fill="#FEFBFB" transform="translate(119,44)"/>
<path d="M0 0 C1.32 0 2.64 0 4 0 C4 36.96 4 73.92 4 112 C2.68 112 1.36 112 0 112 C0 75.04 0 38.08 0 0 Z " fill="#E26269" transform="translate(81,44)"/>
<path d="M0 0 C1.32 0 2.64 0 4 0 C4 23.76 4 47.52 4 72 C3.34 72 2.68 72 2 72 C2 85.2 2 98.4 2 112 C1.34 112 0.68 112 0 112 C0 75.04 0 38.08 0 0 Z " fill="#E36169" transform="translate(115,44)"/>
</svg>
